<svg xmlns="http://www.w3.org/2000/svg" width="960" height="430" viewBox="0 0 960 430">
<rect width="100%" height="100%" fill="#fff"/>
<defs><marker id="arrow" markerWidth="10" markerHeight="10" refX="9" refY="3" orient="auto" markerUnits="strokeWidth"><path d="M0,0 L0,6 L9,3 z" fill="#555"/></marker></defs>
<text x="480" y="28" text-anchor="middle" font-family="Arial" font-size="18" font-weight="700">Directly-Follows Process Map by Transition Frequency</text>
<path d="M755,148 C820,85 870,160 758,178" fill="none" stroke="#d62728" stroke-width="1.93" opacity="0.62" marker-end="url(#arrow)"/>
<text x="810" y="128" text-anchor="middle" font-family="Arial" font-size="10">1,221</text>
<path d="M345,148 C410,85 460,160 348,178" fill="none" stroke="#d62728" stroke-width="2.00" opacity="0.62" marker-end="url(#arrow)"/>
<text x="400" y="128" text-anchor="middle" font-family="Arial" font-size="10">1,418</text>
<path d="M545,308 C610,245 660,320 548,338" fill="none" stroke="#d62728" stroke-width="2.20" opacity="0.62" marker-end="url(#arrow)"/>
<text x="600" y="288" text-anchor="middle" font-family="Arial" font-size="10">1,997</text>
<line x1="318" y1="70" x2="242" y2="170" stroke="#555" stroke-width="3.19" opacity="0.62" marker-end="url(#arrow)"/>
<text x="280.0" y="112.0" text-anchor="middle" font-family="Arial" font-size="10">4,831</text>
<line x1="138" y1="170" x2="202" y2="70" stroke="#555" stroke-width="3.19" opacity="0.62" marker-end="url(#arrow)"/>
<text x="170.0" y="112.0" text-anchor="middle" font-family="Arial" font-size="10">4,831</text>
<line x1="138" y1="170" x2="242" y2="170" stroke="#555" stroke-width="6.81" opacity="0.62" marker-end="url(#arrow)"/>
<text x="190.0" y="162.0" text-anchor="middle" font-family="Arial" font-size="10">15,169</text>
<line x1="558" y1="170" x2="652" y2="170" stroke="#555" stroke-width="8.50" opacity="0.62" marker-end="url(#arrow)"/>
<text x="605.0" y="162.0" text-anchor="middle" font-family="Arial" font-size="10">20,000</text>
<line x1="768" y1="330" x2="442" y2="330" stroke="#555" stroke-width="8.50" opacity="0.62" marker-end="url(#arrow)"/>
<text x="605.0" y="322.0" text-anchor="middle" font-family="Arial" font-size="10">20,000</text>
<line x1="768" y1="170" x2="652" y2="330" stroke="#555" stroke-width="8.50" opacity="0.62" marker-end="url(#arrow)"/>
<text x="710.0" y="242.0" text-anchor="middle" font-family="Arial" font-size="10">20,000</text>
<line x1="358" y1="170" x2="442" y2="170" stroke="#555" stroke-width="8.50" opacity="0.62" marker-end="url(#arrow)"/>
<text x="400.0" y="162.0" text-anchor="middle" font-family="Arial" font-size="10">20,000</text>
<line x1="558" y1="330" x2="242" y2="330" stroke="#555" stroke-width="8.50" opacity="0.62" marker-end="url(#arrow)"/>
<text x="400.0" y="322.0" text-anchor="middle" font-family="Arial" font-size="10">20,000</text>
<rect x="14" y="148" width="132" height="44" rx="5" fill="#f7f9fb" stroke="#2f5d7c"/><text x="80" y="174" text-anchor="middle" font-family="Arial" font-size="11">Purchase Request</text>
<rect x="194" y="48" width="132" height="44" rx="5" fill="#f7f9fb" stroke="#2f5d7c"/><text x="260" y="74" text-anchor="middle" font-family="Arial" font-size="11">Budget Review</text>
<rect x="234" y="148" width="132" height="44" rx="5" fill="#f7f9fb" stroke="#2f5d7c"/><text x="300" y="174" text-anchor="middle" font-family="Arial" font-size="11">Manager Approval</text>
<rect x="434" y="148" width="132" height="44" rx="5" fill="#f7f9fb" stroke="#2f5d7c"/><text x="500" y="174" text-anchor="middle" font-family="Arial" font-size="11">Purchase Order</text>
<rect x="644" y="148" width="132" height="44" rx="5" fill="#f7f9fb" stroke="#2f5d7c"/><text x="710" y="174" text-anchor="middle" font-family="Arial" font-size="11">Vendor Confirmation</text>
<rect x="644" y="308" width="132" height="44" rx="5" fill="#f7f9fb" stroke="#2f5d7c"/><text x="710" y="334" text-anchor="middle" font-family="Arial" font-size="11">Goods Receipt</text>
<rect x="434" y="308" width="132" height="44" rx="5" fill="#f7f9fb" stroke="#2f5d7c"/><text x="500" y="334" text-anchor="middle" font-family="Arial" font-size="11">Invoice Verification</text>
<rect x="234" y="308" width="132" height="44" rx="5" fill="#f7f9fb" stroke="#2f5d7c"/><text x="300" y="334" text-anchor="middle" font-family="Arial" font-size="11">Payment</text>
</svg>